<?xml version="1.0" encoding="UTF-8"?> <svg xmlns="http://www.w3.org/2000/svg" width="120" height="120" viewBox="0 0 120 120" fill="none"> <circle cx="60" cy="60" r="60" fill="url(#paint0_linear_106_45)"></circle> <path d="M59.966 26.6665C41.566 26.6665 26.666 41.5998 26.666 59.9998C26.666 78.3998 41.566 93.3332 59.966 93.3332C78.3993 93.3332 93.3327 78.3998 93.3327 59.9998C93.3327 41.5998 78.3993 26.6665 59.966 26.6665ZM59.9993 86.6665C45.266 86.6665 33.3327 74.7332 33.3327 59.9998C33.3327 45.2665 45.266 33.3332 59.9993 33.3332C74.7327 33.3332 86.666 45.2665 86.666 59.9998C86.666 74.7332 74.7327 86.6665 59.9993 86.6665Z" fill="white"></path> <path d="M61.666 43.3335H56.666V63.3335L74.166 73.8335L76.666 69.7335L61.666 60.8335V43.3335Z" fill="white"></path> <defs> <linearGradient id="paint0_linear_106_45" x1="4.47035e-07" y1="60" x2="137.609" y2="60" gradientUnits="userSpaceOnUse"> <stop stop-color="#09CAD7"></stop> <stop offset="1" stop-color="#7A6CF8"></stop> </linearGradient> </defs> </svg> 