<?xml version="1.0" encoding="UTF-8"?> <svg xmlns="http://www.w3.org/2000/svg" width="84" height="58" viewBox="0 0 84 58" fill="none"> <path d="M2.63472 42.4799L0 58H4.01384L5.31061 49.0667H5.35178L8.91278 58H10.5183L14.244 49.0667H14.2851L15.4172 58H19.4517L17.1051 42.4799H13.0913L9.75671 50.7751L6.60739 42.4799H2.63472Z" fill="#333333"></path> <path d="M28.1256 56.9502V58H32.1601V56.9502C36.4003 56.9502 39.9819 54.2949 39.9819 49.9518C39.9819 45.9379 36.1327 43.5296 32.1601 43.5296V42.4799H28.1256V43.5296C24.153 43.5296 20.3038 45.9379 20.3038 49.9518C20.3038 54.2949 23.8854 56.9502 28.1256 56.9502ZM28.1256 47.1112V53.3687C26.1908 53.3687 24.5029 51.9484 24.5029 49.9724C24.5029 48.3874 26.1908 47.1112 28.1256 47.1112ZM32.1601 53.3687V47.1112C34.0949 47.1112 35.7828 48.3874 35.7828 49.9724C35.7828 51.9484 34.0949 53.3687 32.1601 53.3687Z" fill="#333333"></path> <path d="M46.8016 58V45.8968H50.1361V42.4799H39.4326V45.8968H42.7671V58H46.8016Z" fill="#333333"></path> <path d="M67.0808 58V42.4799H63.0463L55.6568 51.969H55.6156V42.4799H51.5812V58H55.6156L63.0052 48.4903H63.0463V58H67.0808Z" fill="#333333"></path> <path d="M13.9146 34.0019H10.9917V21.6516H6.95731V34.0019H4.03442V21.6516H0V37.1718H17.949V21.6516H13.9146V34.0019Z" fill="#062F56"></path> <path d="M29.5377 21.6516L24.6594 28.0532H24.6182V21.6516H20.5838V37.1718H24.6182V30.4409H24.6594L29.8671 37.1718H35.0953L28.3644 29L34.5396 21.6516H29.5377Z" fill="#062F56"></path> <path d="M51.4414 29.1235C51.4414 24.4304 47.3247 21.137 42.858 21.137C38.3913 21.137 34.2746 24.4304 34.2746 29.1235C34.2746 34.146 37.8767 37.6864 42.858 37.6864C47.8393 37.6864 51.4414 34.146 51.4414 29.1235ZM38.4736 29.1441C38.4736 27.0034 40.4497 25.0479 42.858 25.0479C45.2663 25.0479 47.2423 27.0034 47.2423 29.1441C47.2423 31.82 45.2663 33.7755 42.858 33.7755C40.4497 33.7755 38.4736 31.82 38.4736 29.1441Z" fill="#062F56"></path> <path d="M57.3729 25.0685H61.1192V37.1718H65.1536V21.6516H53.5443C53.5443 33.3844 53.462 34.1666 51.383 34.1666L51.7947 37.5835C57.3112 37.5835 57.3729 33.9813 57.3729 25.0685Z" fill="#062F56"></path> <path d="M71.7338 34.4753H77.2914L78.3 37.1718H82.602L76.7562 21.6516H72.3513L66.382 37.1718H70.6634L71.7338 34.4753ZM74.5538 26.4476L76.2005 31.3877H72.8453L74.5126 26.4476H74.5538Z" fill="#062F56"></path> <path d="M10.2301 0.411676H0V15.9318H6.17513C9.5097 15.9318 11.8357 14.2851 11.8357 11.0329C11.8357 7.67775 9.83904 5.96929 6.31922 5.96929H4.03442V3.82858H10.2301V0.411676ZM4.03442 12.6796V9.22153H4.71368C6.38097 9.22153 7.7395 9.22153 7.7395 10.9094C7.7395 12.659 6.36039 12.6796 4.71368 12.6796H4.03442Z" fill="#333333"></path> <path d="M29.0876 15.9318V0.411676H25.0532L17.6636 9.90079H17.6224V0.411676H13.588V15.9318H17.6224L25.012 6.42214H25.0532V15.9318H29.0876Z" fill="#333333"></path> <path d="M39.4795 7.57483C40.694 7.08082 41.5585 6.01046 41.5585 4.59018C41.5585 1.44086 39.3354 0 36.2273 0C34.6629 0 32.7486 0.49401 31.3695 1.27619L32.975 4.40493C33.7161 3.78741 34.8687 3.37574 35.8568 3.37574C36.8448 3.37574 37.5652 3.95208 37.5652 4.85777C37.5652 5.86638 36.9683 6.46331 35.9803 6.46331H33.7366V9.53029H36.0626C37.2153 9.53029 38.1004 10.0861 38.1004 11.177C38.1004 12.3503 37.4006 12.9266 36.1449 12.9266C34.7658 12.9266 33.572 12.2062 32.5634 11.3211L30.8343 14.5733C32.4193 15.6848 34.3336 16.3435 36.289 16.3435C39.8912 16.3435 42.2995 14.6351 42.2995 11.1152C42.2995 9.61262 41.1056 8.11001 39.4795 7.57483Z" fill="#333333"></path> <path d="M54.2836 6.40155H48.4584V0.411676H44.424V15.9318H48.4584V9.57146H54.2836V15.9318H58.318V0.411676H54.2836V6.40155Z" fill="#333333"></path> <path d="M64.9817 3.82858H69.7777V0.411676H60.9473V15.9318H69.7777V12.5149H64.9817V9.83904H69.5307V6.42214H64.9817V3.82858Z" fill="#333333"></path> <path d="M83.359 5.61937V0.782183C82.1651 0.288173 80.9712 0 79.6745 0C77.4926 0 75.2901 0.946854 73.7669 2.51122C72.2849 4.03442 71.4821 6.07221 71.4821 8.19234C71.4821 10.4977 72.2643 12.5149 73.9728 14.0587C75.5783 15.5202 77.6367 16.3435 79.798 16.3435C81.0536 16.3435 82.021 16.0348 83.359 15.6231V10.7859C82.515 11.7945 81.1977 12.4326 79.8803 12.4326C77.3691 12.4326 75.6812 10.6624 75.6812 8.21293C75.6812 5.80462 77.3485 3.91092 79.8186 3.91092C81.1977 3.91092 82.5356 4.50785 83.359 5.61937Z" fill="#333333"></path> </svg> 