<?xml version="1.0" encoding="UTF-8"?> <svg xmlns="http://www.w3.org/2000/svg" width="22" height="22" viewBox="0 0 22 22" fill="none"> <g clip-path="url(#clip0_2411_326)"> <path d="M6.06833 9.89083C7.38833 12.485 9.515 14.6025 12.1092 15.9317L14.1258 13.915C14.3733 13.6675 14.74 13.585 15.0608 13.695C16.0875 14.0342 17.1967 14.2175 18.3333 14.2175C18.8375 14.2175 19.25 14.63 19.25 15.1342V18.3333C19.25 18.8375 18.8375 19.25 18.3333 19.25C9.72583 19.25 2.75 12.2742 2.75 3.66667C2.75 3.1625 3.1625 2.75 3.66667 2.75H6.875C7.37917 2.75 7.79167 3.1625 7.79167 3.66667C7.79167 4.8125 7.975 5.9125 8.31417 6.93917C8.415 7.26 8.34167 7.6175 8.085 7.87417L6.06833 9.89083Z" fill="#52FFD7"></path> </g> <defs> <clipPath id="clip0_2411_326"> <rect width="22" height="22" fill="white"></rect> </clipPath> </defs> </svg> 