<?xml version="1.0" encoding="UTF-8"?> <svg xmlns="http://www.w3.org/2000/svg" width="102" height="102" viewBox="0 0 102 102" fill="none"> <path d="M42.5 68V63.75H12.7925L12.75 80.75C12.75 85.4675 16.5325 89.25 21.25 89.25H80.75C85.4675 89.25 89.25 85.4675 89.25 80.75V63.75H59.5V68H42.5ZM85 29.75H67.9575V21.25L59.4575 12.75H42.4575L33.9575 21.25V29.75H17C12.325 29.75 8.5 33.575 8.5 38.25V51C8.5 55.7175 12.2825 59.5 17 59.5H42.5V51H59.5V59.5H85C89.675 59.5 93.5 55.675 93.5 51V38.25C93.5 33.575 89.675 29.75 85 29.75ZM59.5 29.75H42.5V21.25H59.5V29.75Z" fill="url(#paint0_linear_25_125)"></path> <defs> <linearGradient id="paint0_linear_25_125" x1="8.5" y1="51" x2="105.973" y2="51" gradientUnits="userSpaceOnUse"> <stop stop-color="#09CAD7"></stop> <stop offset="1" stop-color="#7A6CF8"></stop> </linearGradient> </defs> </svg> 