<?xml version="1.0" encoding="UTF-8"?> <svg xmlns="http://www.w3.org/2000/svg" width="96" height="40" viewBox="0 0 96 40" fill="none"> <path d="M4.13855 26.6877V26.7281C8.1033 26.7281 10.5675 22.1504 12.2496 22.8828C13.6028 23.4709 11.1696 26.7281 13.3529 26.7281H34.8293C34.8293 22.6345 31.5116 19.3169 27.4196 19.3169H16.2625C13.6509 19.3169 16.0933 16.0163 14.7976 15.2994C13.086 14.3543 9.57748 19.3169 5.42807 19.3169V19.3215V19.3169H0V26.7281H4.12924L4.137 26.6877H4.13855Z" fill="#52FFD7"></path> <path d="M11.3764 31.6673C9.5484 31.6673 10.6657 30.1124 9.92392 29.7974C8.8439 29.3397 6.66988 31.6673 3.26531 31.6673H0.00195312V39.0785H1.96493C4.56879 39.0785 6.24159 37.1 7.31541 37.5516C8.10836 37.8852 7.06868 39.0785 8.46372 39.0785H27.4216C31.5136 39.0785 34.8313 35.7609 34.8313 31.6673H11.3764Z" fill="#52FFD7"></path> <path d="M6.31142 14.379C11.6386 14.379 14.8911 7.20361 17.1846 8.21381C19.0979 9.05797 15.2356 14.379 18.2057 14.379H33.4161V6.96775H21.1168C17.72 6.96775 21.5249 1.92607 19.6768 0.802593C17.3305 -0.621926 12.489 6.96775 7.59628 6.96775H0.00195312V14.379H6.31142Z" fill="#52FFD7"></path> <path d="M44.8438 7.01913H51.5132V8.54296H46.7447V10.2437H49.0351C50.0344 10.2437 50.7963 10.4516 51.3193 10.8691C51.8422 11.2865 52.1044 11.8886 52.1044 12.6753C52.1044 13.5024 51.8143 14.1433 51.2308 14.5995C50.6473 15.0557 49.8265 15.2838 48.7635 15.2838H44.8438V7.01758V7.01913ZM48.6564 13.8671C49.1452 13.8671 49.5177 13.7709 49.7784 13.5784C50.0375 13.386 50.1678 13.1036 50.1678 12.7343C50.1678 12.0096 49.6635 11.648 48.6564 11.648H46.7447V13.8686H48.6564V13.8671Z" fill="#52FFD7"></path> <path d="M53.5547 7.01904H55.4556V12.4037L59.3986 7.01904H61.1925V15.2853H59.304V9.91308L55.3609 15.2853H53.5547V7.01904Z" fill="#52FFD7"></path> <path d="M69.0741 11.7489C69.3456 12.0996 69.4806 12.5061 69.4806 12.9717C69.4806 13.476 69.3146 13.912 68.9841 14.2829C68.6535 14.6538 68.2066 14.9362 67.6449 15.1333C67.0832 15.3303 66.4656 15.4281 65.7983 15.4281C65.2319 15.4281 64.6671 15.3567 64.1038 15.2155C63.5405 15.0743 63.0082 14.8571 62.5039 14.5669L63.0951 13.1967C63.4567 13.417 63.8555 13.5846 64.2931 13.6979C64.7291 13.8127 65.1559 13.8686 65.5733 13.8686C66.1397 13.8686 66.6099 13.7662 66.9838 13.5613C67.3578 13.3565 67.544 13.0694 67.544 12.7001C67.544 12.3929 67.4152 12.1616 67.1607 12.0034C66.9047 11.8466 66.5571 11.7675 66.1164 11.7675H64.0976V10.3275H65.9752C66.36 10.3275 66.6611 10.2483 66.8783 10.0916C67.094 9.93486 67.2026 9.71762 67.2026 9.44295C67.2026 9.12019 67.0475 8.8688 66.7371 8.68725C66.4252 8.50569 66.0264 8.41569 65.5392 8.41569C65.1776 8.41569 64.8021 8.46534 64.4172 8.5631C64.0308 8.66087 63.6662 8.80983 63.3186 9.00536L62.7398 7.51722C63.6134 7.06876 64.5569 6.84375 65.5733 6.84375C66.2188 6.84375 66.8132 6.93841 67.3563 7.12772C67.8994 7.31704 68.3323 7.5917 68.6551 7.95481C68.9779 8.31637 69.1392 8.73845 69.1392 9.21795C69.1392 9.6121 69.0337 9.96124 68.8211 10.2685C68.6085 10.5757 68.3168 10.8116 67.9475 10.9761C68.427 11.1421 68.8041 11.3997 69.0756 11.7489H69.0741Z" fill="#52FFD7"></path> <path d="M78.5694 7.01904V15.2853H76.6577V11.8962H72.904V15.2853H70.9922V7.01904H72.904V10.2777H76.6577V7.01904H78.5694Z" fill="#52FFD7"></path> <path d="M87.0307 13.7491V15.2838H80.6328V7.01758H86.8771V8.55227H82.5322V10.3477H86.3681V11.8358H82.5322V13.7491H87.0292H87.0307Z" fill="#52FFD7"></path> <path d="M90.1798 14.8769C89.4985 14.5107 88.9647 14.0032 88.5737 13.353C88.1842 12.7044 87.9902 11.9704 87.9902 11.1511C87.9902 10.3318 88.1842 9.59777 88.5737 8.94913C88.9632 8.29894 89.4985 7.79152 90.1798 7.4253C90.861 7.05908 91.626 6.87598 92.4764 6.87598C93.1917 6.87598 93.8404 7.00167 94.4176 7.25461C94.9964 7.50599 95.4821 7.86911 95.8747 8.34084L94.6473 9.47518C94.0887 8.82965 93.3966 8.50688 92.5695 8.50688C92.0574 8.50688 91.6012 8.61861 91.2008 8.84361C90.7989 9.06862 90.487 9.38052 90.262 9.78243C90.037 10.1843 89.9253 10.6406 89.9253 11.1526C89.9253 11.6647 90.037 12.1209 90.262 12.5228C90.4855 12.9247 90.7989 13.2367 91.2008 13.4617C91.6027 13.6867 92.059 13.7984 92.5695 13.7984C93.3966 13.7984 94.0887 13.471 94.6473 12.8177L95.8747 13.9505C95.4806 14.4315 94.9933 14.7962 94.4114 15.0491C93.828 15.3005 93.1793 15.4277 92.464 15.4277C91.6214 15.4277 90.861 15.2446 90.1798 14.8784V14.8769Z" fill="#52FFD7"></path> <path d="M55.7511 18.9165V27.1827H44.8438V18.9165H46.7447V25.6232H49.3532V18.9165H51.2541V25.6232H53.8517V18.9165H55.7526H55.7511Z" fill="#52FFD7"></path> <path d="M61.0043 23.8512H59.6822V27.1813H57.7812V18.915H59.6822V22.256H61.0524L63.2248 18.915H65.2437L62.5405 22.9062L65.3259 27.1813H63.1535L61.0043 23.8512Z" fill="#52FFD7"></path> <path d="M67.8094 26.7681C67.1204 26.3988 66.5819 25.8883 66.1924 25.2396C65.8029 24.5894 65.6074 23.8601 65.6074 23.0485C65.6074 22.237 65.8029 21.5076 66.1924 20.8575C66.5819 20.2088 67.1204 19.6983 67.8094 19.329C68.4984 18.9596 69.2711 18.7734 70.1293 18.7734C70.9874 18.7734 71.7586 18.9581 72.4429 19.329C73.1273 19.6983 73.6657 20.2088 74.0599 20.8575C74.4525 21.5076 74.6495 22.237 74.6495 23.0485C74.6495 23.8601 74.4525 24.5894 74.0599 25.2396C73.6657 25.8883 73.1273 26.3988 72.4429 26.7681C71.7586 27.1374 70.9874 27.3237 70.1293 27.3237C69.2711 27.3237 68.4984 27.139 67.8094 26.7681ZM71.4514 25.3576C71.8455 25.1326 72.1543 24.8207 72.3778 24.4188C72.6028 24.0168 72.7145 23.5606 72.7145 23.0485C72.7145 22.5365 72.6028 22.0802 72.3778 21.6783C72.1543 21.2764 71.8455 20.9645 71.4514 20.7395C71.0572 20.5145 70.6165 20.4028 70.1293 20.4028C69.642 20.4028 69.2013 20.5145 68.8072 20.7395C68.413 20.9645 68.1042 21.2764 67.8807 21.6783C67.6557 22.0802 67.544 22.5365 67.544 23.0485C67.544 23.5606 67.6557 24.0168 67.8807 24.4188C68.1042 24.8207 68.413 25.1326 68.8072 25.3576C69.2013 25.5826 69.6405 25.6943 70.1293 25.6943C70.6181 25.6943 71.0572 25.5826 71.4514 25.3576Z" fill="#52FFD7"></path> <path d="M83.2563 18.916V27.1823H81.3678V20.4755H78.5343L78.4754 22.1995C78.435 23.3727 78.3419 24.3224 78.1914 25.0517C78.0424 25.7795 77.7926 26.3381 77.4419 26.7276C77.0912 27.1171 76.6024 27.3126 75.9724 27.3126C75.7132 27.3126 75.3982 27.2692 75.0273 27.1823L75.1453 25.5653C75.2477 25.5964 75.3625 25.6119 75.4882 25.6119C75.9444 25.6119 76.2625 25.3419 76.4441 24.8034C76.6257 24.2649 76.7389 23.4192 76.787 22.2709L76.905 18.9176H83.2563V18.916Z" fill="#52FFD7"></path> <path d="M90.9189 25.4107H87.0829L86.3505 27.1813H84.3906L88.0745 18.915H89.963L93.6578 27.1813H91.6513L90.9189 25.4107ZM90.3168 23.9583L89.0056 20.7942L87.6959 23.9583H90.3168Z" fill="#52FFD7"></path> <path d="M52.362 39.0787L52.3512 34.1317L49.9196 38.2051H49.0692L46.6376 34.2264V39.0787H44.8438V30.8125H46.425L49.5177 35.9488L52.5638 30.8125H54.145L54.1574 39.0787H52.3636H52.362Z" fill="#52FFD7"></path> <path d="M64.881 37.502C64.1377 38.1273 63.0685 38.4765 61.6766 38.5463V39.4432H59.9185V38.5339C58.5172 38.4547 57.445 38.1025 56.7017 37.4771C55.9584 36.8518 55.5859 35.9998 55.5859 34.9214C55.5859 33.8429 55.9584 32.9832 56.7017 32.3656C57.445 31.748 58.5172 31.3958 59.9185 31.3089V30.4585H61.6766V31.2965C63.0701 31.3756 64.1377 31.7294 64.881 32.3594C65.6243 32.9894 65.9967 33.8429 65.9967 34.9214C65.9967 35.9998 65.6243 36.875 64.881 37.502ZM59.9169 37.0473V32.8079C59.0743 32.887 58.452 33.0965 58.0455 33.4394C57.6405 33.7824 57.4372 34.2758 57.4372 34.9214C57.4372 36.1659 58.2627 36.8735 59.9154 37.0473H59.9169ZM63.5403 36.4033C63.9499 36.0526 64.1548 35.5545 64.1548 34.909C64.1548 33.6489 63.3277 32.9491 61.6751 32.8079V37.0473C62.5099 36.9681 63.1306 36.754 63.5403 36.4033Z" fill="#52FFD7"></path> <path d="M73.6254 32.3719H70.9812V39.0787H69.0927V32.3719H66.4609V30.814H73.627V32.3719H73.6254Z" fill="#52FFD7"></path> <path d="M74.8262 30.8125H76.7271V36.1971L80.6701 30.8125H82.464V39.0787H80.5755V33.7065L76.6324 39.0787H74.8262V30.8125Z" fill="#52FFD7"></path> </svg> 