<?xml version="1.0" encoding="UTF-8"?> <svg xmlns="http://www.w3.org/2000/svg" width="120" height="120" viewBox="0 0 120 120" fill="none"> <circle cx="60" cy="60" r="60" fill="url(#paint0_linear_102_31)"></circle> <path d="M80.3333 49.9999L84.4999 40.8333L93.6666 36.6666L84.4999 32.4999L80.3333 23.3333L76.1666 32.4999L66.9999 36.6666L76.1666 40.8333L80.3333 49.9999ZM55.3333 51.6666L46.9999 33.3333L38.6666 51.6666L20.3333 59.9999L38.6666 68.3333L46.9999 86.6666L55.3333 68.3333L73.6666 59.9999L55.3333 51.6666ZM80.3333 69.9999L76.1666 79.1666L66.9999 83.3333L76.1666 87.4999L80.3333 96.6666L84.4999 87.4999L93.6666 83.3333L84.4999 79.1666L80.3333 69.9999Z" fill="white"></path> <defs> <linearGradient id="paint0_linear_102_31" x1="4.47035e-07" y1="60" x2="137.609" y2="60" gradientUnits="userSpaceOnUse"> <stop stop-color="#09CAD7"></stop> <stop offset="1" stop-color="#7A6CF8"></stop> </linearGradient> </defs> </svg> 