<?xml version="1.0" encoding="UTF-8"?> <svg xmlns="http://www.w3.org/2000/svg" width="120" height="120" viewBox="0 0 120 120" fill="none"> <circle cx="60" cy="60" r="60" fill="url(#paint0_linear_102_30)"></circle> <path d="M83.3333 29.9999H69.4C68 26.1333 64.3333 23.3333 60 23.3333C55.6667 23.3333 52 26.1333 50.6 29.9999H36.6667C33 29.9999 30 32.9999 30 36.6666V83.3333C30 86.9999 33 89.9999 36.6667 89.9999H83.3333C87 89.9999 90 86.9999 90 83.3333V36.6666C90 32.9999 87 29.9999 83.3333 29.9999ZM60 29.9999C61.8333 29.9999 63.3333 31.4999 63.3333 33.3333C63.3333 35.1666 61.8333 36.6666 60 36.6666C58.1667 36.6666 56.6667 35.1666 56.6667 33.3333C56.6667 31.4999 58.1667 29.9999 60 29.9999ZM53.3333 76.6666L40 63.3333L44.7 58.6333L53.3333 67.2332L75.3 45.2666L80 49.9999L53.3333 76.6666Z" fill="white"></path> <defs> <linearGradient id="paint0_linear_102_30" x1="4.47035e-07" y1="60" x2="137.609" y2="60" gradientUnits="userSpaceOnUse"> <stop stop-color="#09CAD7"></stop> <stop offset="1" stop-color="#7A6CF8"></stop> </linearGradient> </defs> </svg> 