<?xml version="1.0" encoding="UTF-8"?> <svg xmlns="http://www.w3.org/2000/svg" width="102" height="102" viewBox="0 0 102 102" fill="none"> <path d="M89.25 34C83.0875 34 79.645 40.12 81.0475 44.6675L65.96 59.7975C64.685 59.415 62.815 59.415 61.54 59.7975L50.7025 48.96C52.1475 44.4125 48.705 38.25 42.5 38.25C36.3375 38.25 32.8525 44.37 34.2975 48.96L14.9175 68.2975C10.37 66.895 4.25 70.3375 4.25 76.5C4.25 81.175 8.075 85 12.75 85C18.9125 85 22.355 78.88 20.9525 74.3325L40.29 54.9525C41.565 55.335 43.435 55.335 44.71 54.9525L55.5475 65.79C54.1025 70.3375 57.545 76.5 63.75 76.5C69.9125 76.5 73.3975 70.38 71.9525 65.79L87.0825 50.7025C91.63 52.105 97.75 48.6625 97.75 42.5C97.75 37.825 93.925 34 89.25 34Z" fill="url(#paint0_linear_25_128)"></path> <path d="M63.75 38.25L67.745 29.4525L76.5 25.5L67.745 21.5475L63.75 12.75L59.84 21.5475L51 25.5L59.84 29.4525L63.75 38.25Z" fill="url(#paint1_linear_25_128)"></path> <path d="M14.875 46.75L17 38.25L25.5 36.125L17 34L14.875 25.5L12.75 34L4.25 36.125L12.75 38.25L14.875 46.75Z" fill="url(#paint2_linear_25_128)"></path> <defs> <linearGradient id="paint0_linear_25_128" x1="4.25" y1="59.5" x2="111.47" y2="59.5" gradientUnits="userSpaceOnUse"> <stop stop-color="#09CAD7"></stop> <stop offset="1" stop-color="#7A6CF8"></stop> </linearGradient> <linearGradient id="paint1_linear_25_128" x1="51" y1="25.5" x2="80.2418" y2="25.5" gradientUnits="userSpaceOnUse"> <stop stop-color="#09CAD7"></stop> <stop offset="1" stop-color="#7A6CF8"></stop> </linearGradient> <linearGradient id="paint2_linear_25_128" x1="4.25" y1="36.125" x2="28.6182" y2="36.125" gradientUnits="userSpaceOnUse"> <stop stop-color="#09CAD7"></stop> <stop offset="1" stop-color="#7A6CF8"></stop> </linearGradient> </defs> </svg> 