<?xml version="1.0" encoding="UTF-8"?> <svg xmlns="http://www.w3.org/2000/svg" width="120" height="120" viewBox="0 0 120 120" fill="none"> <path fill-rule="evenodd" clip-rule="evenodd" d="M100 15H20C14.5 15 10 19.5 10 25V95C10 100.5 14.5 105 20 105H100C105.5 105 110 100.5 110 95V25C110 19.5 105.5 15 100 15ZM50 85H25V75H50V85ZM50 65H25V55H50V65ZM50 45H25V35H50V45ZM74.1 75L60 60.8L67.05 53.75L74.1 60.85L89.95 45L97.05 52.1L74.1 75Z" fill="url(#paint0_linear_25_158)"></path> <defs> <linearGradient id="paint0_linear_25_158" x1="10" y1="60" x2="124.674" y2="60" gradientUnits="userSpaceOnUse"> <stop stop-color="#09CAD7"></stop> <stop offset="1" stop-color="#7A6CF8"></stop> </linearGradient> </defs> </svg> 