<?xml version="1.0" encoding="UTF-8"?> <svg xmlns="http://www.w3.org/2000/svg" width="102" height="102" viewBox="0 0 102 102" fill="none"> <path d="M85 78.75C89.675 78.75 93.4575 74.925 93.4575 70.25L93.5 23.5C93.5 18.825 89.675 15 85 15H17C12.325 15 8.5 18.825 8.5 23.5V70.25C8.5 74.925 12.325 78.75 17 78.75H0C0 83.425 3.825 87.25 8.5 87.25H93.5C98.175 87.25 102 83.425 102 78.75H85ZM17 23.5H85V70.25H17V23.5ZM51 83C48.6625 83 46.75 81.0875 46.75 78.75C46.75 76.4125 48.6625 74.5 51 74.5C53.3375 74.5 55.25 76.4125 55.25 78.75C55.25 81.0875 53.3375 83 51 83Z" fill="url(#paint0_linear_25_100)"></path> <defs> <linearGradient id="paint0_linear_25_100" x1="3.7998e-07" y1="51.125" x2="116.967" y2="51.125" gradientUnits="userSpaceOnUse"> <stop stop-color="#09CAD7"></stop> <stop offset="1" stop-color="#7A6CF8"></stop> </linearGradient> </defs> </svg> 